<?xml version="1.0" encoding="utf-8"?>
<!-- Generator: Adobe Illustrator 27.5.0, SVG Export Plug-In . SVG Version: 6.00 Build 0)  -->
<svg version="1.1" xmlns="http://www.w3.org/2000/svg" xmlns:xlink="http://www.w3.org/1999/xlink" x="0px" y="0px"
	 viewBox="0 0 3710 3710" style="enable-background:new 0 0 3710 3710;" xml:space="preserve">
<g id="Background">
	<g>
		<g>
			<rect style="fill:#FFFFFF;" width="3710" height="3710"/>
		</g>
	</g>
</g>
<g id="Illustration">
	<g>
		<path style="fill:#F4F7FA;" d="M3323.545,1622.601c-78.974-516.92-402.766-1151.993-1042.452-1218.454
			c0,0-485.68-59.076-964.454,30.46c-284.153,53.139-533.313,211.322-690.971,438.671
			c-157.66,227.349-210.323,504.569-146.41,768.865c41.511,171.662,69.563,349.327,61.864,525.72
			c-13.398,306.996-5.69,593.555,292.243,776.638c266.019,163.474,600.809,307.651,920.203,332.904
			c217.058,17.162,460.475-10.61,669.677-67.121C3489.39,2922.285,3402.519,2139.521,3323.545,1622.601z"/>
		<g>
			<g>
				<defs>
					<path id="SVGID_1_" d="M2300.212,2789.191l219.212,95.656c0,0,90.335-94.444,71.244-197.245
						c-38.951-209.746,147.47-229.221,224.33-249.059c115.912-29.917,205.01-106.832,96.445-204.617
						c-108.564-97.785,105.019-238.966,299.179-260.302c189.999-20.879,262.519-370.672-152.859-363.24
						c-248.063,4.438-311.336,237.781-371.302,348.021c-59.966,110.24-234.526,45.354-237.284,210.787
						c-2.355,141.31,54.26,269.803-53.852,320.485C2287.214,2540.358,2239.521,2629.266,2300.212,2789.191z"/>
				</defs>
				<clipPath id="SVGID_00000178171447894822753110000016041705588598081160_">
					<use xlink:href="#SVGID_1_"  style="overflow:visible;"/>
				</clipPath>
				
					<linearGradient id="SVGID_00000086650647453388635160000012649108862693579693_" gradientUnits="userSpaceOnUse" x1="7891.3218" y1="1547.8093" x2="7415.1538" y2="2901.1311" gradientTransform="matrix(0.9165 0.3999 -0.3999 0.9165 -3368.5586 -2891.708)">
					<stop  offset="0" style="stop-color:#FFC444"/>
					<stop  offset="0.9964" style="stop-color:#F36F56"/>
				</linearGradient>
				
					<path style="clip-path:url(#SVGID_00000178171447894822753110000016041705588598081160_);fill:url(#SVGID_00000086650647453388635160000012649108862693579693_);" d="
					M2300.212,2789.191l219.212,95.656c0,0,90.335-94.444,71.244-197.245c-38.951-209.746,147.47-229.221,224.33-249.059
					c115.912-29.917,192.112-100.672,112.938-202.689c-89.582-115.426,88.526-240.894,282.686-262.231
					c189.999-20.879,262.519-370.672-152.859-363.24c-248.063,4.438-311.336,237.781-371.302,348.021
					c-59.966,110.24-234.526,45.354-237.284,210.787c-2.355,141.31,54.26,269.803-53.852,320.485
					C2287.214,2540.358,2239.521,2629.266,2300.212,2789.191z"/>
				<g style="opacity:0.5;clip-path:url(#SVGID_00000178171447894822753110000016041705588598081160_);">
					<path style="fill:#BEB8F2;" d="M2386.21,2850.937l4.917,1.152c0.713-3.045,73.244-307.634,236.193-587.904
						c150.118-258.205,409.931-548.002,795.174-462.29l1.097-4.928c-171.492-38.156-332.806-6.362-479.465,94.495
						c-117.155,80.568-225.23,205.146-321.223,370.273C2459.599,2542.654,2386.926,2847.886,2386.21,2850.937z"/>
					<path style="fill:#BEB8F2;" d="M2884.66,1936.255l4.844,1.431c47.668-161.151,200.642-352.859,202.181-354.777l-3.936-3.163
						C3086.203,1581.674,2932.608,1774.16,2884.66,1936.255z"/>
					<path style="fill:#BEB8F2;" d="M2984.22,1871.732c198.139-29.081,323.366,81.004,324.607,82.119l3.375-3.754
						c-1.259-1.134-128.146-112.797-328.714-83.361L2984.22,1871.732z"/>
					<path style="fill:#BEB8F2;" d="M2530.771,2453.22c146.952-195.607,467.052-119.626,470.109-118.626l1.88-4.681
						c-2.907-1.267-327.769-77.071-476.025,120.274L2530.771,2453.22z"/>
					<path style="fill:#BEB8F2;" d="M2569.686,2360.143l4.945,1.034c31.994-152.806-77.905-315.511-79.02-317.137l-4.165,2.853
						C2492.549,2048.504,2601.237,2209.471,2569.686,2360.143z"/>
					<path style="fill:#BEB8F2;" d="M2403.594,2804.41c43.731-82.01,194.319-96.346,195.835-96.483l-0.448-5.027
						c-6.299,0.559-154.822,14.704-199.841,99.136L2403.594,2804.41z"/>
					<path style="fill:#BEB8F2;" d="M2419.801,2732.05l4.902,1.211c17.635-71.339-50.447-189.092-72.82-227.786
						c-3.161-5.469-5.89-10.189-6.211-11.125l-4.8,1.567c0.434,1.328,2.239,4.471,6.64,12.086
						C2369.632,2546.26,2436.948,2662.688,2419.801,2732.05z"/>
				</g>
			</g>
			<g>
				
					<linearGradient id="SVGID_00000163785170273304839470000002480106643471635127_" gradientUnits="userSpaceOnUse" x1="105.6588" y1="2343.1421" x2="736.8022" y2="4001.5254" gradientTransform="matrix(-0.7453 0.6668 0.6668 0.7453 -817.329 -536.889)">
					<stop  offset="0" style="stop-color:#FFC444"/>
					<stop  offset="0.9964" style="stop-color:#F36F56"/>
				</linearGradient>
				<path style="fill:url(#SVGID_00000163785170273304839470000002480106643471635127_);" d="M1320.872,2383.191
					c64.948,20.463,88.333,82.22,98.254,129.561c-4.617,4.636-6.091,8.481-9.698,14.173c-32.562,51.369-57.4,66.346-97.489,111.911
					c-8.629,9.808-42.712,30.892-57.191,38.613l-27.224,13.963c0,0-142.59-65.053-114.738-149.787
					c27.852-84.734-99.735-163.698-162.171-213.86c-38.34-30.804-46.007-57.173-58.278-70.753
					c-129.894-143.753-211.626-142.363-225.149-215.057c-14.929-80.248,80.401-104.913,68.773-193.068
					c-13.132-99.544-143.503-134.927-134.879-231.905c1.478-16.626,3.45-33.669,13.971-53.293
					c25.969-48.437,77.926-57.431,73.389-114.683c-9.121-115.079,56.718-224.987,175.261-214.944
					c116.996,9.912,182.562,195.797,128.565,451.143c-17.697,185.97,6.583,212.276,77.884,264.248
					c49.94,36.404,209.459,102.021,192.265,208.547C1245.224,2264.527,1246.623,2359.8,1320.872,2383.191z"/>
				<g>
					<defs>
						<path id="SVGID_00000127735594543250404800000011847213447205172637_" d="M1427.385,2574.1l-192.547,117.561
							c0,0-149.904-65.301-122.052-150.036c27.852-84.735-99.735-163.698-162.171-213.861
							c-169.405-136.104,22.777-299.275-179.268-492.178c-53.738-51.306-175.176-130.361-170.265-218.603
							c5.594-100.533,93.195-94.348,87.359-167.976c-9.121-115.079,56.719-224.987,175.261-214.944
							c116.996,9.912,182.562,195.797,128.567,451.142c-17.697,185.972,6.583,212.276,77.882,264.249
							c49.941,36.404,209.459,102.022,192.266,208.548c-17.194,106.526-15.794,201.797,58.454,225.19
							C1433.848,2418.786,1427.385,2574.1,1427.385,2574.1z"/>
					</defs>
					<clipPath id="SVGID_00000162352938567170531090000002288074490000770985_">
						<use xlink:href="#SVGID_00000127735594543250404800000011847213447205172637_"  style="overflow:visible;"/>
					</clipPath>
					<g style="opacity:0.5;clip-path:url(#SVGID_00000162352938567170531090000002288074490000770985_);">
						<path style="fill:#FCFDFE;" d="M1335.999,2618.146l-3.515,2.765c-15.449-19.262-30.771-38.893-45.54-58.344
							c-109.341-144.033-200.151-293.793-269.903-445.128c-59.102-128.23-103.95-259.38-133.296-389.807
							c-23.6-104.888-37.349-209.881-40.864-312.062c-2.469-71.832,0.103-141.542,7.654-207.195
							c1.313-11.441,3.31-23.116,5.242-34.408c2.574-15.044,5.235-30.6,6.297-45.722l4.357-0.014
							c-1.077,15.33-3.755,30.991-6.345,46.137c-1.922,11.235-3.909,22.853-5.21,34.178c-7.526,65.446-10.093,134.949-7.629,206.577
							c3.505,101.927,17.224,206.671,40.769,311.318c29.286,130.158,74.045,261.046,133.033,389.029
							c69.634,151.079,160.299,300.601,269.473,444.41C1305.27,2579.307,1320.569,2598.909,1335.999,2618.146z"/>
						<path style="fill:#FCFDFE;" d="M930.572,1883.186l-4.145,1.632c-59.131-168.697-325.758-324.089-328.444-325.638l2.421-3.703
							C603.103,1557.033,870.967,1713.139,930.572,1883.186z"/>
						<path style="fill:#FCFDFE;" d="M1139.613,2337.941l-3.956,2.076c-54.332-109.084,46.163-334.719,47.184-336.986l3.982,1.47
							C1185.809,2006.75,1086.13,2230.563,1139.613,2337.941z"/>
						<path style="fill:#FCFDFE;" d="M1176.14,2396.845l-3.568,2.698c-48.322-63.048-150.757-121.376-288.434-164.238
							c-6.923-2.156-6.923-2.156-7.411-2.773l3.537-2.74l-1.768,1.37l1.155-1.873c0.44,0.196,3.054,1.01,6.084,1.952
							C1024.197,2274.35,1127.332,2333.16,1176.14,2396.845z"/>
						<path style="fill:#FCFDFE;" d="M1308.346,2582.568l-4.138,1.645c-29.443-82.851,44.082-200.095,44.827-201.269l3.67,2.044
							C1351.97,2386.145,1279.578,2501.614,1308.346,2582.568z"/>
						<path style="fill:#FCFDFE;" d="M1331.445,2623.124c-61.878-35.736-137.626-54.547-231.57-57.506l0.455-4.255
							c94.666,2.984,171.057,21.976,233.538,58.06L1331.445,2623.124z"/>
						<path style="fill:#FCFDFE;" d="M850.335,1475.198l-4.214,1.407c-27.363-95.96-79.464-188.97-96.584-219.533
							c-4.144-7.399-5.594-10.008-5.93-11.014l4.163-1.574c0.267,0.764,2.636,4.993,5.637,10.348
							C770.582,1285.493,822.847,1378.799,850.335,1475.198z"/>
						<path style="fill:#FCFDFE;" d="M870.598,1639.319l-4.365,0.163c3.299-95.293,146.767-234.809,152.872-240.703l2.958,2.915
							C1020.583,1403.124,873.835,1545.805,870.598,1639.319z"/>
					</g>
				</g>
			</g>
			<g>
				
					<linearGradient id="SVGID_00000036945734506191073800000016372170460422662829_" gradientUnits="userSpaceOnUse" x1="1909.7981" y1="2504.9744" x2="2745.8491" y2="4731.5996" gradientTransform="matrix(0.8673 -0.4978 0.4978 0.8673 -276.351 278.1102)">
					<stop  offset="0.0036" style="stop-color:#E38DDD"/>
					<stop  offset="1" style="stop-color:#9571F6"/>
				</linearGradient>
				<path style="fill:url(#SVGID_00000036945734506191073800000016372170460422662829_);" d="M2728.908,2591.185
					c-14.619,1.443-14.619-75.7-77.384-160.121c-15.68-21.091-93.227-142.058-199.337-121.754
					c-20.597,3.941-41.197,7.881-61.794,11.822c-28.063-41.883-46.753-86.557,11.228-118.296
					c90.043-49.289,53.433-209.998,13.151-260.618c-49.855-62.652-162.743-210.825-24.781-289.079
					c114.852-65.147,202.772-85.17,174.914-237.347c-27.858-152.178,36.374-265.735,183.135-289.782
					c154.444-25.306,232.81-244.577,372.99-209.188c244.254,61.667,127.969,437.551-112.872,593.695
					c-240.84,156.144-67.5,211.257-30.481,332.548c2.798,11.454,6.254,29.428,6.305,51.417
					c0.313,135.374-129.007,188.244-201.049,315.598C2684.682,2383.764,2753.536,2588.754,2728.908,2591.185z"/>
				<g>
					<defs>
						<path id="SVGID_00000049936102674315786820000002167112499723531904_" d="M2742.587,2281.437l-332.137,73.168
							c-29.732-40.036-73.594-116.315-8.829-151.768c90.044-49.29,53.433-209.998,13.151-260.619
							c-49.855-62.652-162.743-210.825-24.781-289.08c114.852-65.147,202.771-85.169,174.913-237.346
							c-27.858-152.178,36.375-265.735,183.136-289.781c154.443-25.306,232.809-244.578,372.989-209.188
							c244.254,61.666,127.969,437.548-112.871,593.693c-240.84,156.144-67.502,211.257-30.482,332.549
							c50.54,165.59-198.986,184.662-246.561,265.095C2693.82,2171.215,2720.416,2240.42,2742.587,2281.437z"/>
					</defs>
					<clipPath id="SVGID_00000013187053110797655010000016780997385099528842_">
						<use xlink:href="#SVGID_00000049936102674315786820000002167112499723531904_"  style="overflow:visible;"/>
					</clipPath>
					<g style="opacity:0.5;clip-path:url(#SVGID_00000013187053110797655010000016780997385099528842_);">
						<path style="fill:#FCFDFE;" d="M2574.659,2266.664l-7.369,0.248c-12.391-508.818,236.736-1023.866,650.161-1344.148
							l4.63,5.364C2810.398,1247.061,2562.32,1759.96,2574.659,2266.664z"/>
						<path style="fill:#FCFDFE;" d="M2593.064,1988.416l-7.19,1.617c-46.581-194.632-259.747-306.612-261.896-307.72l3.594-6.122
							C2329.748,1677.311,2545.746,1790.716,2593.064,1988.416z"/>
						<path style="fill:#FCFDFE;" d="M2575.082,2172.973l-7.098-1.795c57.885-196.002,432.551-306.075,436.329-307.163l2.071,6.659
							C3002.648,1871.751,2631.865,1980.698,2575.082,2172.973z"/>
						<path style="fill:#FCFDFE;" d="M2747.523,1509.441l-7.244-1.211c31.751-158.461-120.623-357.087-122.165-359.075l5.959-4.165
							C2625.636,1147.002,2779.862,1348.053,2747.523,1509.441z"/>
						<path style="fill:#FCFDFE;" d="M2922.172,1229.358l-5.149-4.926c138.938-129.632,401.1-134.159,403.736-134.186l0,6.964
							C3318.157,1097.236,3058.943,1101.745,2922.172,1229.358z"/>
					</g>
				</g>
			</g>
			<g>
				
					<linearGradient id="SVGID_00000067942075231227621530000003589820947226149294_" gradientUnits="userSpaceOnUse" x1="-1505.3549" y1="764.8421" x2="-669.3181" y2="2991.4297" gradientTransform="matrix(-0.1932 -0.9812 0.9812 -0.1932 -129.3991 1311.4821)">
					<stop  offset="0.0036" style="stop-color:#E38DDD"/>
					<stop  offset="1" style="stop-color:#9571F6"/>
				</linearGradient>
				<path style="fill:url(#SVGID_00000067942075231227621530000003589820947226149294_);" d="M1978.116,2894.358
					c-3.323,14.309-76.389-10.442-176.484,21.918c-25.007,8.084-164.459,42.719-179.274,149.733
					c-2.876,20.773-5.754,41.547-8.63,62.32c-48.673,13.142-96.982,16.509-108.44-48.59
					c-17.793-101.097-181.751-117.985-242.62-96.074c-75.336,27.117-251.895,86.496-281.747-69.28
					c-24.853-129.683-15.608-219.378-168.677-241.819c-153.071-22.441-240.015-119.712-215.703-266.429
					c25.586-154.398-156.949-298.974-78.455-420.388c136.775-211.554,455.476,19.184,526.092,297.391
					c70.616,278.205,178.43,131.713,305.187,135.567c11.747,1.025,29.879,3.519,50.721,10.525
					c128.317,43.138,136.899,182.584,234.406,291.679C1767.472,2869.695,1983.716,2870.253,1978.116,2894.358z"/>
				<g>
					<defs>
						<path id="SVGID_00000034059560447505493900000003919143982195595678_" d="M1689.133,2782.02l-37.266,338.052
							c-47.459,15.315-133.778,32.384-146.577-40.333c-17.794-101.098-181.752-117.986-242.62-96.075
							c-75.336,27.118-251.895,86.496-281.748-69.28c-24.852-129.682-15.607-219.377-168.677-241.817
							c-153.07-22.441-240.014-119.713-215.702-266.43c25.585-154.397-156.951-298.974-78.455-420.386
							c136.774-211.555,455.474,19.183,526.09,297.389c70.616,278.206,178.43,131.715,305.187,135.568
							c173.051,5.261,111.054,247.715,171.971,318.581C1569.092,2792.844,1643.171,2789.858,1689.133,2782.02z"/>
					</defs>
					<clipPath id="SVGID_00000000921484309556922940000002614149896513856397_">
						<use xlink:href="#SVGID_00000034059560447505493900000003919143982195595678_"  style="overflow:visible;"/>
					</clipPath>
					<g style="opacity:0.5;clip-path:url(#SVGID_00000000921484309556922940000002614149896513856397_);">
						<path style="fill:#FCFDFE;" d="M1621.262,2936.33l-2.13,7.059c-485.892-151.518-893.778-552.726-1064.48-1047.057l6.566-2.664
							C731.201,2385.915,1137.388,2785.44,1621.262,2936.33z"/>
						<path style="fill:#FCFDFE;" d="M1363.629,2829.622l-0.775,7.329c-199.287-18.329-373.742,147.638-375.481,149.318
							l-4.644-5.368C984.488,2979.199,1161.2,2811.006,1363.629,2829.622z"/>
						<path style="fill:#FCFDFE;" d="M1532.66,2905.868l-3.977,6.146c-167.067-117.711-151.109-507.886-150.927-511.814l6.972,0.175
							C1384.548,2404.261,1368.769,2790.396,1532.66,2905.868z"/>
						<path style="fill:#FCFDFE;" d="M959.536,2529.65l-3.471,6.472c-139.896-80.915-376.909-0.326-379.287,0.497l-2.033-6.981
							C577.151,2528.804,817.057,2447.24,959.536,2529.65z"/>
						<path style="fill:#FCFDFE;" d="M750.297,2274.371l-6.317,3.296c-78.2-173.184,1.627-422.938,2.447-425.444l6.596,2.234
							C752.211,1856.93,673.313,2103.886,750.297,2274.371z"/>
					</g>
				</g>
			</g>
		</g>
		<g>
			
				<linearGradient id="SVGID_00000083070389183849802040000015819738890438241690_" gradientUnits="userSpaceOnUse" x1="897.9956" y1="1977.8621" x2="2863.8188" y2="1977.8621">
				<stop  offset="0" style="stop-color:#444B8C"/>
				<stop  offset="0.9964" style="stop-color:#26264F"/>
			</linearGradient>
			<path style="fill:url(#SVGID_00000083070389183849802040000015819738890438241690_);" d="M2804.083,836.204L977.917,730.561
				c-42.06-2.053-79.921,43.845-79.921,82.384v2351.525c0,53.448,54.596,64.205,96.655,59.909l1809.432-184.793
				c33.052-3.375,59.736-33.622,59.736-67.57V900.589C2863.819,866.641,2837.135,837.817,2804.083,836.204z"/>
			<path style="fill:#D8DEE8;" d="M2834.117,817.525l-1829.773-90.013c-42.06-2.069-76.314,27.732-76.314,66.572v2369.897
				c0,38.839,34.254,66.8,76.314,62.471l1829.773-188.33c33.052-3.402,59.736-33.885,59.736-68.098V882.413
				C2893.854,848.2,2867.17,819.151,2834.117,817.525z"/>
			
				<linearGradient id="SVGID_00000139256956352632379390000016585607073191035041_" gradientUnits="userSpaceOnUse" x1="963.1554" y1="1977.0715" x2="2866.489" y2="1977.0715">
				<stop  offset="0.0036" style="stop-color:#E38DDD"/>
				<stop  offset="1" style="stop-color:#9571F6"/>
			</linearGradient>
			<path style="opacity:0.3;fill:url(#SVGID_00000139256956352632379390000016585607073191035041_);" d="M1004.345,3194.314
				c-22.687,2.291-41.189-12.869-41.189-33.799V795.662c0-20.93,18.503-37.084,41.189-36.012l1829.773,86.434
				c17.867,0.844,32.372,16.589,32.372,35.1v2091.541c0,18.511-14.504,35.035-32.372,36.839L1004.345,3194.314z"/>
			<polygon style="fill:#FFFFFF;" points="2716.186,2953.475 1151.173,3104.262 1151.173,922.482 2716.186,981.423 			"/>
			<path style="opacity:0.3;fill:#97A6B7;" d="M2090.228,992.101l-625.465,7.825l14.029-141.055
				c1.058-18.328,14.309-33.373,31.752-36.054l105.926-16.278c12.471-1.916,23.211-10.159,28.662-21.995l11.486-24.945
				l277.061,17.108L2090.228,992.101z"/>
			
				<linearGradient id="SVGID_00000138545667901231421320000011905452901066970284_" gradientUnits="userSpaceOnUse" x1="1464.7639" y1="773.7755" x2="2448.0427" y2="773.7755">
				<stop  offset="0" style="stop-color:#444B8C"/>
				<stop  offset="0.9964" style="stop-color:#26264F"/>
			</linearGradient>
			<path style="fill:url(#SVGID_00000138545667901231421320000011905452901066970284_);" d="M2424.231,900.591
				c-2.967-15.959-15.753-27.16-31.863-27.882l-99.943-4.479c-45.363-2.033-78.617-38.886-76.952-85.563l3.857-108.168
				c0.714-20.004-13.573-36.034-33.207-37.206l-32.836-1.961c-25.039-1.496-41.71-23.569-38.198-49.092
				c6.138-44.605-24.423-83.098-68.716-86.117c-44.641-3.042-86.304,31.063-92.95,76.238c-0.988,6.713-3.255,13.346-6.945,19.266
				c-10.315,16.547-28.389,25.656-46.09,24.599l-33.872-2.023c-20.523-1.226-40.027,13.179-45.226,33.448l-28.164,109.797
				c-12.181,47.485-58.126,81.799-106.913,79.613l-109.633-4.914c-17.956-0.805-35.577,9.66-43.846,26.068l-66.065,131.091
				c-5.411,10.736,1.252,22.334,13.043,22.726l950.748,31.579c10.406,0.346,19.235-10.03,17.319-20.341L2424.231,900.591z
				 M2032.895,593.741c-13.096-0.812-22.184-12.197-20.279-25.427c1.905-13.231,14.076-23.265,27.166-22.412
				c13.067,0.851,22.105,12.232,20.206,25.423C2058.089,584.514,2045.968,594.551,2032.895,593.741z"/>
			<path style="fill:#97A6B7;" d="M2429.863,903.523c-2.967-15.958-15.753-27.16-31.864-27.882l-99.943-4.479
				c-45.362-2.033-78.617-38.886-76.952-85.563l3.857-108.168c0.713-20.004-13.572-36.033-33.207-37.206l-32.836-1.961
				c-25.039-1.496-41.71-23.569-38.198-49.092c6.137-44.605-24.424-83.098-68.716-86.117c-44.64-3.042-86.303,31.062-92.95,76.238
				c-0.988,6.713-3.255,13.346-6.945,19.266c-10.315,16.547-28.389,25.656-46.09,24.599l-33.872-2.023
				c-20.524-1.226-40.027,13.18-45.226,33.448l-28.163,109.797c-12.181,47.485-58.126,81.799-106.914,79.613l-109.633-4.914
				c-17.956-0.805-35.576,9.66-43.846,26.068l-66.065,131.091c-5.411,10.736,1.252,22.334,13.043,22.726l950.748,31.579
				c10.406,0.346,19.236-10.031,17.319-20.341L2429.863,903.523z M2038.527,596.673c-13.096-0.812-22.184-12.197-20.279-25.427
				c1.905-13.231,14.076-23.265,27.166-22.412c13.068,0.851,22.105,12.232,20.206,25.423
				C2063.72,587.446,2051.6,597.483,2038.527,596.673z"/>
			<g>
				<path style="opacity:0.5;fill:#FFFFFF;" d="M2267.154,963.764c-84.808-52.354-149.882-15.233-202.737-74.282
					c-56.583-63.212-18.419-146.43-76.965-185.699c-37.481-25.141-70.916-2.966-114.509-9.773
					c-15.961-2.491-32.996-8.836-50.697-21.203l-23.488,91.571c-12.181,47.486-58.126,81.798-106.913,79.613l-109.634-4.913
					c-17.955-0.805-35.576,9.661-43.846,26.068l-66.064,131.091c-5.411,10.735,1.252,22.334,13.044,22.724l864.034,28.699
					C2327.615,1013.097,2300.581,984.398,2267.154,963.764z"/>
			</g>
			<g>
				<polygon style="fill:#D8DEE8;" points="2562.517,1293.424 1340.915,1288.997 1340.915,1229.61 2562.517,1237.587 				"/>
				<polygon style="fill:#D8DEE8;" points="2562.517,1652.377 1340.915,1670.773 1340.915,1611.385 2562.517,1596.54 				"/>
				<polygon style="fill:#D8DEE8;" points="2562.517,1807.923 1340.915,1836.209 1340.915,1776.821 2562.517,1752.086 				"/>
				<polygon style="fill:#D8DEE8;" points="2562.517,1963.47 1340.915,2001.645 1340.915,1942.257 2562.517,1907.633 				"/>
				<polygon style="fill:#D8DEE8;" points="2562.517,2115.028 1340.915,2162.839 1340.915,2107.693 2562.517,2063.179 				"/>
				<polygon style="fill:#D8DEE8;" points="2562.517,2270.574 1340.915,2328.275 1340.915,2273.129 2562.517,2218.725 				"/>
				<polygon style="fill:#D8DEE8;" points="1873.133,2708.321 1340.915,2743.986 1340.915,2727.018 1873.133,2691.792 				"/>
				<polygon style="fill:#D8DEE8;" points="2562.517,2430.109 2266.046,2446.474 2266.046,2401.93 2562.517,2386.237 				"/>
				<polygon style="fill:#D8DEE8;" points="2562.517,2545.772 2266.046,2563.91 2266.046,2519.365 2562.517,2501.9 				"/>
				<polygon style="fill:#D8DEE8;" points="2562.517,2661.434 2266.046,2681.346 2266.046,2632.752 2562.517,2613.574 				"/>
				<path style="fill:#97A6B7;" d="M1449.664,2769.575c0,0,5.841-10.118,16.35-27.56c5.24-8.723,11.717-19.228,19.242-31.208
					c7.528-11.965,16.118-25.388,25.765-39.839c9.676-14.413,20.274-29.936,32.507-45.694c6.167-7.843,12.625-15.791,20.282-23.375
					c1.938-1.886,3.953-3.749,6.187-5.534c2.255-1.773,4.632-3.529,7.821-4.94c1.609-0.675,3.495-1.305,5.881-1.322
					c1.213,0.031,2.518,0.21,3.815,0.764c1.271,0.541,2.494,1.376,3.389,2.36c3.573,4.036,3.623,8.383,4.153,10.52
					c1.929,10.983,2.806,22.281,2.476,33.906c-0.17,5.806-0.65,11.679-1.568,17.616c-0.948,5.941-2.245,11.932-4.607,18.063
					c-1.228,3.066-2.66,6.191-5.087,9.365c-1.249,1.569-2.749,3.2-4.933,4.524c-2.114,1.347-5.099,2.117-7.736,1.713
					c-2.601-0.359-4.773-1.663-6.159-2.771l-0.4-0.31l-0.56-0.469c-0.388-0.321-0.699-0.625-1.031-0.937
					c-0.655-0.637-1.302-1.338-1.918-2.146c-1.226-1.587-2.357-3.617-2.974-6.047c-0.644-2.415-0.646-5.138-0.173-7.518
					c1.003-4.828,3.278-8.159,5.436-10.935c2.221-2.75,4.574-4.975,6.964-6.99c4.786-3.995,9.744-7.156,14.773-10
					c10.069-5.61,20.444-9.834,30.994-13.164c10.557-3.245,21.266-5.681,32.414-6.044c5.574-0.083,11.298,0.17,17.295,2.58
					c2.95,1.234,6.112,3.188,8.535,6.56c0.292,0.423,0.584,0.852,0.844,1.309c0.273,0.47,0.527,0.951,0.638,1.178l0.904,1.762
					l1.814,3.627c2.358,4.769,4.585,9.398,6.979,13.575c2.399,4.136,4.982,7.837,7.916,10.301c2.905,2.545,6.131,3.75,9.792,3.986
					c3.677,0.161,7.727-0.708,11.754-2.171c8.104-3.011,15.971-7.948,23.428-13.165c7.686-5.401,15.182-10.674,22.609-15.632
					c3.726-2.471,7.431-4.872,11.276-7.091c3.843-2.202,7.831-4.29,12.271-5.722c4.441-1.458,9.292-1.821,13.388-1.432
					c4.117,0.371,7.694,1.107,11.13,1.739c1.698,0.316,3.375,0.628,5.029,0.936c1.604,0.275,3.45,0.645,4.368,0.686
					c2.362,0.188,4.456-0.273,6.038-1.267c1.603-0.974,2.902-2.536,3.935-4.506c1.012-1.98,1.629-4.343,1.906-6.693
					c0.575-4.743-0.109-9.408-1.498-13.106c-1.316-3.784-3.39-6.593-5.508-8.601c-2.143-2.005-4.419-3.134-6.367-3.839
					c-1.962-0.68-3.607-0.948-4.724-1.074c-1.12-0.123-1.715-0.145-1.715-0.145c-1.37-0.046-2.387-1.315-2.269-2.835
					c0.102-1.309,1.018-2.377,2.142-2.62c0,0,0.689-0.147,2.053-0.333c1.361-0.181,3.429-0.388,6.129-0.021
					c2.691,0.328,6.055,1.285,9.506,3.563c3.458,2.236,6.827,5.948,9.312,10.926c2.413,5.005,4.02,11.268,3.648,18.514
					c-0.239,3.613-0.961,7.496-2.665,11.407c-1.668,3.879-4.529,7.86-8.52,10.394c-3.964,2.611-8.544,3.551-12.762,3.316
					c-2.392-0.126-3.822-0.474-5.561-0.756c-1.681-0.307-3.385-0.617-5.111-0.932c-3.414-0.624-6.858-1.287-10.056-1.556
					c-3.21-0.258-6.033-0.016-9.117,0.974c-6.206,2.053-13.291,6.658-20.44,11.399c-7.197,4.837-14.622,10.093-22.287,15.516
					c-7.905,5.536-16.399,11.044-26.327,14.793c-4.976,1.809-10.439,3.153-16.295,2.92c-2.924-0.147-5.901-0.77-8.726-1.875
					c-2.844-1.088-5.431-2.785-7.711-4.707c-4.597-3.893-7.816-8.727-10.607-13.469c-2.755-4.781-5.08-9.611-7.41-14.281
					l-1.737-3.447l-0.91-1.76c-0.184-0.365-0.247-0.463-0.304-0.562c-0.063-0.117-0.146-0.224-0.219-0.34
					c-0.627-0.889-1.847-1.819-3.535-2.502c-3.39-1.403-8.025-1.811-12.671-1.674c-9.426,0.32-19.409,2.546-29.154,5.596
					c-9.768,3.099-19.469,7.141-28.535,12.18c-4.518,2.52-8.898,5.325-12.705,8.482c-1.892,1.573-3.631,3.249-4.989,4.921
					c-1.353,1.647-2.242,3.362-2.378,4.24c-0.076,0.447-0.077,0.665-0.004,0.957c0.066,0.287,0.247,0.712,0.651,1.242
					c0.193,0.262,0.445,0.542,0.734,0.826l0.427,0.394l0.188,0.17l0.374,0.294c0.649,0.528,0.819,0.492,0.789,0.515
					c-0.072-0.05-0.353,0.09-0.151-0.01c0.165-0.071,0.644-0.491,1.141-1.118c1.029-1.298,2.102-3.371,2.977-5.582
					c1.771-4.497,2.975-9.66,3.814-14.832c0.83-5.198,1.295-10.491,1.476-15.76c0.359-10.528-0.41-21.04-2.103-30.958l-0.343-1.928
					l-0.087-0.488l-0.06-0.268c-0.041-0.192-0.078-0.391-0.128-0.532c-0.168-0.641-0.4-0.961-0.264-0.774
					c0.128,0.191,0.741,0.403,0.698,0.335c-0.047-0.002-0.577,0.064-1.257,0.362c-1.397,0.588-3.207,1.794-4.93,3.163
					c-1.746,1.379-3.49,2.966-5.201,4.615c-6.851,6.706-13.177,14.357-19.156,21.9c-11.96,15.202-22.694,30.355-32.404,44.497
					c-19.429,28.378-34.791,52.814-45.563,69.91c-10.765,17.139-16.729,27.042-16.729,27.042c-1.501,2.492-4.501,3.317-6.703,1.842
					c-2.173-1.456-2.755-4.607-1.327-7.085L1449.664,2769.575z"/>
			</g>
		</g>
		<g>
			<g>
				
					<linearGradient id="SVGID_00000127746555479411413770000018190142290147126455_" gradientUnits="userSpaceOnUse" x1="2391.7473" y1="2818.491" x2="2535.457" y2="3337.0955">
					<stop  offset="0" style="stop-color:#311944"/>
					<stop  offset="1" style="stop-color:#893976"/>
				</linearGradient>
				<path style="fill:url(#SVGID_00000127746555479411413770000018190142290147126455_);" d="M2533.358,3112.478
					c0,0,6.853,27.777,7.07,37.84c0.219,10.064-110.527,24.092-112.251,16.677c-1.724-7.414,16.816-20.908,30.2-26.218
					c13.385-5.312,52.647-19.77,52.647-19.77L2533.358,3112.478z"/>
				
					<linearGradient id="SVGID_00000093145680924630115350000018418109058808275354_" gradientUnits="userSpaceOnUse" x1="2519.6497" y1="3185.1484" x2="2521.7324" y2="3010.1978">
					<stop  offset="0" style="stop-color:#FFC444"/>
					<stop  offset="0.9964" style="stop-color:#F36F56"/>
				</linearGradient>
				<path style="fill:url(#SVGID_00000093145680924630115350000018418109058808275354_);" d="M2504.129,3086.58l6.35,34.713
					c0,0,13.596,7.498,24.444,0l2.64-38.549L2504.129,3086.58z"/>
				
					<linearGradient id="SVGID_00000055680486477703913310000015727001559409808060_" gradientUnits="userSpaceOnUse" x1="2571.6694" y1="2768.6304" x2="2715.3804" y2="3287.2395">
					<stop  offset="0" style="stop-color:#311944"/>
					<stop  offset="1" style="stop-color:#893976"/>
				</linearGradient>
				<path style="fill:url(#SVGID_00000055680486477703913310000015727001559409808060_);" d="M2735.336,3142.212
					c0,0,6.854,27.776,7.072,37.84c0.218,10.064-110.529,24.092-112.252,16.677c-1.724-7.414,16.816-20.908,30.2-26.22
					c13.384-5.31,52.646-19.769,52.646-19.769L2735.336,3142.212z"/>
				
					<linearGradient id="SVGID_00000173125768806763955090000007775141231158573734_" gradientUnits="userSpaceOnUse" x1="2721.9529" y1="3187.5586" x2="2724.0356" y2="3012.6042">
					<stop  offset="0" style="stop-color:#FFC444"/>
					<stop  offset="0.9964" style="stop-color:#F36F56"/>
				</linearGradient>
				<path style="fill:url(#SVGID_00000173125768806763955090000007775141231158573734_);" d="M2706.107,3116.314l6.35,34.713
					c0,0,13.595,7.499,24.445,0l2.639-38.549L2706.107,3116.314z"/>
				
					<linearGradient id="SVGID_00000080901402448516403410000007761236700797929403_" gradientUnits="userSpaceOnUse" x1="2418.8037" y1="2622.4829" x2="2605.0776" y2="2622.4829">
					<stop  offset="0" style="stop-color:#444B8C"/>
					<stop  offset="0.9964" style="stop-color:#26264F"/>
				</linearGradient>
				<path style="fill:url(#SVGID_00000080901402448516403410000007761236700797929403_);" d="M2451.088,2171.331
					c-10.761,27.078-21.522,54.156-32.284,81.234c1.579,149.482,9.396,311.536,26.547,484.14
					c12.76,128.417,29.397,249.701,48.434,363.274c17.356-2.194,34.713-4.394,52.07-6.586
					c21.185-52.013,44.852-130.14,40.096-223.859c-4.96-97.758-35.566-108.337-41.174-201.868
					c-7.267-121.226,40.898-157.585,56.271-305.335c5.879-56.505,7.014-129.782-8.331-217.344
					C2545.506,2153.766,2498.298,2162.552,2451.088,2171.331z"/>
				
					<linearGradient id="SVGID_00000036253233406983884730000002396351713238889661_" gradientUnits="userSpaceOnUse" x1="2418.8049" y1="2622.4829" x2="2605.0779" y2="2622.4829">
					<stop  offset="0" style="stop-color:#444B8C"/>
					<stop  offset="0.9964" style="stop-color:#26264F"/>
				</linearGradient>
				<path style="opacity:0.3;fill:url(#SVGID_00000036253233406983884730000002396351713238889661_);" d="M2592.717,2144.987
					c-25.496,4.741-50.992,9.483-76.488,14.23c-39.828,84.249-46.032,169.115-34.939,205.543
					c15.693,51.542,47.435,65.912,49.986,118.719c2.523,52.25-27.1,68.225-41.657,131.215
					c-10.075,43.611-3.384,82.431,10.416,158.29c27.793,152.805,68.765,196.932,41.655,249.934
					c-7.705,15.06-22.287,33.428-52.495,48.981c1.522,9.385,3.035,18.801,4.591,28.082c17.356-2.19,34.713-4.394,52.07-6.584
					c21.185-52.02,44.852-130.142,40.096-223.861c-4.96-97.758-35.566-108.34-41.174-201.869
					c-7.267-121.227,40.898-157.582,56.271-305.333C2606.927,2305.827,2608.062,2232.55,2592.717,2144.987z"/>
				
					<linearGradient id="SVGID_00000110447212616932272190000017901049647764122547_" gradientUnits="userSpaceOnUse" x1="2523.9692" y1="2649.0942" x2="2806.7305" y2="2649.0942">
					<stop  offset="0" style="stop-color:#444B8C"/>
					<stop  offset="0.9964" style="stop-color:#26264F"/>
				</linearGradient>
				<path style="fill:url(#SVGID_00000110447212616932272190000017901049647764122547_);" d="M2523.969,2212.688
					c34.657,129.586,67.24,268.637,95.824,416.583c34.512,178.634,58.84,347.699,75.694,505.129
					c19.164-0.988,38.328-1.983,57.492-2.972c63.401-155.092,59.907-256.518,43.771-321.442
					c-6.218-25.018-21.571-73.821-30.121-147.911c-5.958-51.647-5.813-91.327-5.483-139.039
					c0.723-104.61,9.888-128.169,5.098-207.758c-4.493-74.693-7.211-112.452-30.264-132.771
					C2675.245,2128.976,2534.627,2206.665,2523.969,2212.688z"/>
				
					<linearGradient id="SVGID_00000000187654244099466650000015696539114073270451_" gradientUnits="userSpaceOnUse" x1="1859.7688" y1="1870.3257" x2="2034.7252" y2="2048.4063">
					<stop  offset="0" style="stop-color:#FFC444"/>
					<stop  offset="0.9964" style="stop-color:#F36F56"/>
				</linearGradient>
				<path style="fill:url(#SVGID_00000000187654244099466650000015696539114073270451_);" d="M1967.567,1911.636
					c0,0-42.103-3.609-48.193-10.435c-6.091-6.826-10.03-7.182-10.943-13.44c-0.912-6.258-18.642-3.244-11.268,10.327
					c7.374,13.571-9.266,6.456-12.531,6.127c-7.508-0.754-36.145-1.593-35.32,0.179c0.827,1.774-12.841,19.614,7.498,28.83
					c17.805,8.067,12.592,4.508,24.166,5.063c11.573,0.554,47.422-11.144,47.422-11.144l30.697,2.34L1967.567,1911.636z"/>
				
					<linearGradient id="SVGID_00000016035435839429102660000018347733525300367494_" gradientUnits="userSpaceOnUse" x1="2702.0154" y1="1342.0781" x2="1864.7346" y2="2198.1025">
					<stop  offset="0.0036" style="stop-color:#6165D7"/>
					<stop  offset="1" style="stop-color:#AA80F9"/>
				</linearGradient>
				<path style="fill:url(#SVGID_00000016035435839429102660000018347733525300367494_);" d="M1942.887,1891.966
					c-1.854,14.035-3.708,28.069-5.563,42.103c27.885,23.26,89.537,67.848,175.311,74.534
					c151.21,11.795,301.163-100.114,329.081-225.983c13.824-62.338,2.531-149.797-36.209-163.861
					c-10.754-3.906-26.909-3.35-60.216,19.025c-88.886,59.708-96.445,138.124-145.55,191.167
					C2164.4,1867.125,2094.915,1905.798,1942.887,1891.966z"/>
				
					<linearGradient id="SVGID_00000075861232543535995460000015804323643364392579_" gradientUnits="userSpaceOnUse" x1="3092.3425" y1="2682.6042" x2="2461.2595" y2="1776.5936">
					<stop  offset="0.0036" style="stop-color:#6165D7"/>
					<stop  offset="1" style="stop-color:#AA80F9"/>
				</linearGradient>
				<path style="fill:url(#SVGID_00000075861232543535995460000015804323643364392579_);" d="M2406.307,2280.408
					c-20.756-28.93-0.095-60.092,0.528-118.103c0.705-65.749-25.31-74.603-58.846-180.782
					c-22.302-70.617-43.712-138.409-31.241-220.773c5.976-39.473,16.112-106.423,67.955-142.523
					c26.754-18.629,65.206-20.062,141.019-22.161c93.751-2.599,140.625-3.9,176.906,11.642
					c5.311,2.276,115.835,51.396,130.65,144.713c15.079,94.975-87.973,116.162-91.642,244.722
					c-1.647,57.712,16.513,144.817,28.289,201.314c11.309,54.247,17.193,67.897,7.708,85.355
					c-22.861,42.079-103.573,37.074-265,27.074C2449.312,2306.962,2421.795,2301.996,2406.307,2280.408z"/>
				
					<linearGradient id="SVGID_00000153669636778502242620000007113826720180308385_" gradientUnits="userSpaceOnUse" x1="3092.2805" y1="2682.6467" x2="2461.1956" y2="1776.6335">
					<stop  offset="0" style="stop-color:#AA80F9"/>
					<stop  offset="0.9964" style="stop-color:#6165D7"/>
				</linearGradient>
				<path style="opacity:0.3;fill:url(#SVGID_00000153669636778502242620000007113826720180308385_);" d="M2627.083,1985.69
					c8.739,24.299,34.497,40.908,56.234,99.974c4.693,12.754,38.117,103.569,6.249,129.136
					c-18.408,14.765-37.888-8.855-85.393-8.337c-82.32,0.897-115.806,72.827-170.789,58.323c-9.539-2.521-22.346-8.489-35.855-23.48
					c-1.282,14.588,0.137,27.054,8.779,39.101c15.488,21.588,43.005,26.554,106.325,30.479c161.427,10,242.14,15.005,265-27.074
					c9.485-17.458,3.601-31.108-7.708-85.355c-11.776-56.497-29.936-143.602-28.289-201.314
					c3.669-128.561,106.721-149.747,91.642-244.722c-4.031-25.391-15.252-47.387-29.406-66.181
					C2676.119,1750.248,2599.615,1909.332,2627.083,1985.69z"/>
				<g>
					
						<linearGradient id="SVGID_00000100341395457408021140000006086843917943633049_" gradientUnits="userSpaceOnUse" x1="2884.6218" y1="2304.9485" x2="2915.0945" y2="2304.9485">
						<stop  offset="0" style="stop-color:#FFC444"/>
						<stop  offset="0.9964" style="stop-color:#F36F56"/>
					</linearGradient>
					<path style="fill:url(#SVGID_00000100341395457408021140000006086843917943633049_);" d="M2886.663,2279.343
						c0,0,25.706,8.63,28.431,51.211c-4.193-0.378-13.982-0.152-13.982-0.152s1.814-30.951-16.49-37.229
						C2886.097,2289.579,2886.663,2279.343,2886.663,2279.343z"/>
					
						<linearGradient id="SVGID_00000176006476057227442720000011600431585073676688_" gradientUnits="userSpaceOnUse" x1="2835.9331" y1="2366.8364" x2="2843.2478" y2="2257.9294">
						<stop  offset="0.1" style="stop-color:#311944"/>
						<stop  offset="0.267" style="stop-color:#371B47"/>
						<stop  offset="0.4803" style="stop-color:#462150"/>
						<stop  offset="0.7186" style="stop-color:#612A5F"/>
						<stop  offset="0.9736" style="stop-color:#853774"/>
						<stop  offset="1" style="stop-color:#893976"/>
					</linearGradient>
					<path style="fill:url(#SVGID_00000176006476057227442720000011600431585073676688_);" d="M2791.303,2275.283
						c0.654,7.843,1.307,15.684,1.96,23.525c12.936-3.337,27.048-7.211,42.178-7.742c19.611-0.688,37.525,1.726,53.43,5.694
						c0.706-0.97,2.202-3.306,2.892-7.134c1.111-6.167-0.75-11.328-1.095-12.247c-8.094-2.979-16.884-5.512-26.318-7.296
						C2837.207,2264.952,2812.564,2269.201,2791.303,2275.283z"/>
					
						<linearGradient id="SVGID_00000044881799402177829120000008329300955675968399_" gradientUnits="userSpaceOnUse" x1="2794.9243" y1="2288.3796" x2="2878.5906" y2="2333.2356">
						<stop  offset="0.1" style="stop-color:#311944"/>
						<stop  offset="0.267" style="stop-color:#371B47"/>
						<stop  offset="0.4803" style="stop-color:#462150"/>
						<stop  offset="0.7186" style="stop-color:#612A5F"/>
						<stop  offset="0.9736" style="stop-color:#853774"/>
						<stop  offset="1" style="stop-color:#893976"/>
					</linearGradient>
					<path style="fill:url(#SVGID_00000044881799402177829120000008329300955675968399_);" d="M2790.082,2282.051
						c0.039-2.833,0.255-6.368,1.221-6.768c0.909-0.377,2.132,2.203,2.657,3.634c0.219,0.596,0.701,2.039,1.003,6.613
						c0.389,5.897-0.064,8.779-0.48,10.556c-0.25,1.069-0.639,2.688-1.22,2.721c-0.466,0.026-0.872-1.005-1.476-3
						C2790.974,2293.12,2789.992,2288.642,2790.082,2282.051z"/>
					
						<linearGradient id="SVGID_00000183207183824634827640000011558578442787866551_" gradientUnits="userSpaceOnUse" x1="2766.147" y1="2307.1819" x2="2793.0364" y2="2307.1819">
						<stop  offset="0" style="stop-color:#FFC444"/>
						<stop  offset="0.9964" style="stop-color:#F36F56"/>
					</linearGradient>
					<path style="fill:url(#SVGID_00000183207183824634827640000011558578442787866551_);" d="M2766.147,2331.297
						c5.454,1.073,18.692,4.245,18.692,4.245s-8.627-27.642,7.629-40.135c0.42-2.073,0.847-5.366,0.334-9.339
						c-0.397-3.074-1.225-5.538-1.94-7.247C2783.964,2282.596,2768.919,2295.441,2766.147,2331.297z"/>
					
						<linearGradient id="SVGID_00000111894922745608385350000008989833871729479582_" gradientUnits="userSpaceOnUse" x1="2676.0059" y1="2428.4146" x2="2628.1833" y2="1991.2723">
						<stop  offset="0.1" style="stop-color:#311944"/>
						<stop  offset="0.6853" style="stop-color:#6D2F66"/>
						<stop  offset="1" style="stop-color:#893976"/>
					</linearGradient>
					<path style="fill:url(#SVGID_00000111894922745608385350000008989833871729479582_);" d="M2652.137,2337.425
						c0,0,0.681-14.624,23.855-14.362c3.641,2.702,3.823,14.638,3.823,14.638L2652.137,2337.425z"/>
					
						<linearGradient id="SVGID_00000040564706436290134350000008860193018470714814_" gradientUnits="userSpaceOnUse" x1="2884.074" y1="2609.8047" x2="2567.3862" y2="2433.467">
						<stop  offset="0" style="stop-color:#311944"/>
						<stop  offset="1" style="stop-color:#893976"/>
					</linearGradient>
					<path style="fill:url(#SVGID_00000040564706436290134350000008860193018470714814_);" d="M2631.477,2625.387l63.432,37.423
						l38.086-141.33l-62.895-189.155l-17.964,5.099l-27.367,273.074C2624.149,2616.695,2626.83,2622.646,2631.477,2625.387z"/>
					
						<linearGradient id="SVGID_00000068672218619348755990000009731879032594361779_" gradientUnits="userSpaceOnUse" x1="2598.3003" y1="2364.4539" x2="2693.7993" y2="2524.5984">
						<stop  offset="0" style="stop-color:#311944"/>
						<stop  offset="1" style="stop-color:#893976"/>
					</linearGradient>
					<path style="opacity:0.3;fill:url(#SVGID_00000068672218619348755990000009731879032594361779_);" d="M2732.996,2521.48
						l-62.895-189.155l-17.964,5.099c4.428,16.794,6.551,44.085,7.549,59.271c4.247,64.595,18.326,82.528,11.51,127.566
						c-5.674,37.49-18.085,42.703-16.999,67.916c1.183,27.453,17.141,50.18,36.056,67.886l4.656,2.747L2732.996,2521.48z"/>
					
						<linearGradient id="SVGID_00000076567743879928127780000009922153342777133739_" gradientUnits="userSpaceOnUse" x1="2841.634" y1="2173.418" x2="2876.4644" y2="2640.8811">
						<stop  offset="0.1" style="stop-color:#311944"/>
						<stop  offset="0.6853" style="stop-color:#6D2F66"/>
						<stop  offset="1" style="stop-color:#893976"/>
					</linearGradient>
					<polygon style="fill:url(#SVGID_00000076567743879928127780000009922153342777133739_);" points="2670.101,2332.325 
						3007.488,2335.854 3058.761,2626.435 2694.91,2662.81 					"/>
					<g style="opacity:0.2;">
						
							<linearGradient id="SVGID_00000042010302551661229820000011263183041802429078_" gradientUnits="userSpaceOnUse" x1="2779.761" y1="2438.0447" x2="3036.2322" y2="2635.6541">
							<stop  offset="0" style="stop-color:#311944"/>
							<stop  offset="1" style="stop-color:#893976"/>
						</linearGradient>
						<path style="fill:url(#SVGID_00000042010302551661229820000011263183041802429078_);" d="M3007.488,2335.853l-111.365-1.164
							c-2.072,6.012-5.242,14.331-9.871,23.74c-50.637,102.914-168.334,116.201-166.186,133.356
							c3.21,25.629,261.707-11.499,268.15,22.878c3.107,16.581-50.381,54.902-106.839,69.954
							c-68.371,18.228-119.159-3.08-153.198,36.69c-11.573,13.521-16.689,29.244-19.183,39.867l349.765-34.74L3007.488,2335.853z"/>
					</g>
					
						<linearGradient id="SVGID_00000034049858302806655390000000106133857304341908_" gradientUnits="userSpaceOnUse" x1="2713.696" y1="2411.2292" x2="2821.6948" y2="2407.0352">
						<stop  offset="0.1" style="stop-color:#311944"/>
						<stop  offset="0.6853" style="stop-color:#6D2F66"/>
						<stop  offset="1" style="stop-color:#893976"/>
					</linearGradient>
					<path style="fill:url(#SVGID_00000034049858302806655390000000106133857304341908_);" d="M2675.992,2323.062
						c-3.917-0.044-9.396-0.596-15.362,2.85c-1.275,0.736-2.4,1.55-3.388,2.378l2.749-0.95c4.419-1.251,10.508,0.544,12.78,5.012
						c2.791,5.489,3.795,18.132,4.405,24.395c1.735,17.811,12.384,128.508,12.384,128.508c0.797,9.324,7.834,16.355,16.14,16.136
						l312.531-17.826c2.306-0.059,4.585-0.811,6.486-2.328c3.965-3.163,5.756-8.634,4.837-13.825l-15.379-127.903
						c-1.303-7.367-6.89-12.708-13.377-12.781L2675.992,2323.062z"/>
					
						<linearGradient id="SVGID_00000021109734229658463590000004577528040023988656_" gradientUnits="userSpaceOnUse" x1="2881.7966" y1="2773.4966" x2="2844.2957" y2="2352.0583">
						<stop  offset="0.1" style="stop-color:#311944"/>
						<stop  offset="0.267" style="stop-color:#371B47"/>
						<stop  offset="0.4803" style="stop-color:#462150"/>
						<stop  offset="0.7186" style="stop-color:#612A5F"/>
						<stop  offset="0.9736" style="stop-color:#853774"/>
						<stop  offset="1" style="stop-color:#893976"/>
					</linearGradient>
					<path style="fill:url(#SVGID_00000021109734229658463590000004577528040023988656_);" d="M2679.451,2323.101
						c-3.914-0.044-8.56-0.634-13.742,0.703c-1.398,0.361-3.636,1.027-4.624,1.854c0,0,10.99-2.513,15.146,6.73
						c2.535,5.639,3.793,18.126,4.402,24.387c1.733,17.805,12.376,128.469,12.376,128.469c0.797,9.321,7.829,16.35,16.13,16.131
						l315.76-8.311c2.304-0.061,4.579-0.814,6.479-2.332c3.96-3.165,5.749-8.634,4.831-13.821l-18.782-137.369
						c-1.302-7.365-6.885-12.704-13.369-12.777L2679.451,2323.101z"/>
					
						<linearGradient id="SVGID_00000021807734501785533070000008193895283311943098_" gradientUnits="userSpaceOnUse" x1="2900.0776" y1="2871.2542" x2="2836.4734" y2="2289.8501">
						<stop  offset="0" style="stop-color:#311944"/>
						<stop  offset="1" style="stop-color:#893976"/>
					</linearGradient>
					<path style="opacity:0.1;fill:url(#SVGID_00000021807734501785533070000008193895283311943098_);" d="M3036.209,2476.913
						l-18.782-137.369c-1.302-7.365-6.885-12.704-13.369-12.777l-324.607-3.665c-3.914-0.044-8.56-0.635-13.742,0.703
						c-1.398,0.361-3.636,1.027-4.623,1.854c0,0,10.99-2.513,15.146,6.73c0.4,0.889,0.764,1.962,1.102,3.14
						c31.671,1.581,63.162,0.995,94.477,3.355c61.387,4.522,122.776,5.112,179.46,30.417c18.008,8.039,30.32,36.496,25.451,49.592
						c-3.513,9.449-15.519,8.676-19.715,21.1c-4.416,13.076,6.167,21.951,1.73,31.13c-4.654,9.628-18.813,5.081-41.811,12.027
						c-12.713,3.839-22.484,9.484-28.596,13.51l136.57-3.594c2.304-0.061,4.579-0.814,6.479-2.332
						C3035.339,2487.569,3037.127,2482.1,3036.209,2476.913z"/>
					<g>
						
							<linearGradient id="SVGID_00000092428125585518918220000000915511906011934892_" gradientUnits="userSpaceOnUse" x1="2989.7603" y1="2564.8718" x2="2797.9731" y2="2464.6194">
							<stop  offset="0" style="stop-color:#FFC444"/>
							<stop  offset="0.9964" style="stop-color:#F36F56"/>
						</linearGradient>
						<path style="fill:url(#SVGID_00000092428125585518918220000000915511906011934892_);" d="M2887.67,2519.507l-39.542,9.957
							l-4.193,0.379c-4.228,0.382-7.868-3.303-8.053-8.193l-1.746-46.234c-0.185-4.892,3.165-8.952,7.405-9.023l4.216-0.071
							l39.765,5.077c3.784-0.065,6.969-2.125,7.14,2.438l1.62,43.131C2894.454,2521.53,2891.442,2519.168,2887.67,2519.507z"/>
						
							<linearGradient id="SVGID_00000137099825872984050780000015744346235522273961_" gradientUnits="userSpaceOnUse" x1="2817.8242" y1="2480.0413" x2="3013.5576" y2="2550.083">
							<stop  offset="0" style="stop-color:#FFC444"/>
							<stop  offset="0.9964" style="stop-color:#F36F56"/>
						</linearGradient>
						<path style="fill:url(#SVGID_00000137099825872984050780000015744346235522273961_);" d="M2890.665,2525.859l-43.802,3.962
							c-4.226,0.382-7.865-3.302-8.049-8.19l-1.745-46.222c-0.185-4.89,3.163-8.95,7.401-9.021l43.933-0.737
							c3.781-0.063,6.99,3.618,7.161,8.18l1.619,43.119C2897.354,2521.51,2894.435,2525.518,2890.665,2525.859z"/>
					</g>
				</g>
				
					<linearGradient id="SVGID_00000066515283339036859420000010921225766278191006_" gradientUnits="userSpaceOnUse" x1="2857.7173" y1="2419.1118" x2="2841.3682" y2="2235.3816">
					<stop  offset="0" style="stop-color:#FFC444"/>
					<stop  offset="0.9964" style="stop-color:#F36F56"/>
				</linearGradient>
				<path style="fill:url(#SVGID_00000066515283339036859420000010921225766278191006_);" d="M2837.71,2216.31
					c0,0-3.682,24.396-7.365,26.697s-15.19,15.19-12.888,23.475s-6.448,27.193,9.895,31.778s35.127,9.485,37.012-5.163
					s-2.718-31.219-2.258-43.647c0.46-12.428,6.905-24.856,6.905-24.856L2837.71,2216.31z"/>
				
					<linearGradient id="SVGID_00000183953269551380209460000000988411046711455670_" gradientUnits="userSpaceOnUse" x1="3332.6135" y1="2650.5166" x2="2639.084" y2="1654.8547">
					<stop  offset="0.0036" style="stop-color:#6165D7"/>
					<stop  offset="1" style="stop-color:#AA80F9"/>
				</linearGradient>
				<path style="fill:url(#SVGID_00000183953269551380209460000000988411046711455670_);" d="M2683.317,1600.373
					c-21.844,106.485-2.99,175.498,19.788,219.736c46.115,89.559,125.365,110.683,138.558,190.125
					c9.517,57.302,13.656,170.298-14.311,206.952c25.208,10.06,27.85,9.494,46.875,9.494
					c25.5-14.564,79.844-111.761,102.764-235.783C3004.793,1840.452,2888.476,1662.802,2683.317,1600.373z"/>
				
					<linearGradient id="SVGID_00000078735707659003206330000018062975972814405261_" gradientUnits="userSpaceOnUse" x1="2523.7029" y1="1670.6179" x2="2523.7029" y2="1488.304">
					<stop  offset="0" style="stop-color:#FFC444"/>
					<stop  offset="0.9964" style="stop-color:#F36F56"/>
				</linearGradient>
				<path style="fill:url(#SVGID_00000078735707659003206330000018062975972814405261_);" d="M2615.3,1599.248
					c-10.824-4.422-63.344-15.111-74.989-37.875c-12.888-25.188-17.247-59.853-17.247-59.853s-36.238,9.627-30.932,28.35
					c5.308,18.721-3.725,61.628-24.525,71.212c-14.564,6.711-32.606,9.401-36.517,13.891c-0.426,0.064-0.694,0.126-0.79,0.186
					c-2.997,1.872,6.335,16.264,43.772,37.131c129.186-19.453,142.787-41.576,143.351-49.181
					C2617.994,1601.449,2617.386,1600.099,2615.3,1599.248z"/>
				<g>
					
						<linearGradient id="SVGID_00000166642642224574440660000003137541850534250115_" gradientUnits="userSpaceOnUse" x1="2560.5249" y1="1615.5461" x2="2485.0635" y2="1423.8878">
						<stop  offset="0" style="stop-color:#444B8C"/>
						<stop  offset="0.9964" style="stop-color:#3E4177"/>
					</linearGradient>
					<path style="fill:url(#SVGID_00000166642642224574440660000003137541850534250115_);" d="M2474.564,1492.711
						c-16.807-14.059-19.125-15.673-21.246-20.828c-8.511-20.691,5.63-51.094,26.661-59.985c1.094-0.461,15.211-6.261,21.245-0.417
						c5.125,4.961-1.194,12.887,2.916,22.912c3.849,9.385,12.257,9.437,28.743,20.828c13.581,9.38,22.021,15.212,24.578,24.162
						c5.271,18.452-15.252,47.449-35.408,48.32C2514.803,1528.016,2512.542,1524.481,2474.564,1492.711z"/>
					<g>
						
							<linearGradient id="SVGID_00000053525834431887899290000008321612344619195061_" gradientUnits="userSpaceOnUse" x1="-75.8758" y1="1587.4501" x2="8.4783" y2="1423.4281" gradientTransform="matrix(0.827 0.5622 -0.5622 0.827 3357.9539 289.0357)">
							<stop  offset="0" style="stop-color:#FFC444"/>
							<stop  offset="0.9964" style="stop-color:#F36F56"/>
						</linearGradient>
						<path style="fill:url(#SVGID_00000053525834431887899290000008321612344619195061_);" d="M2520.317,1530.757
							c0,0-15.058,20.079-40.783,15.901c-23.033-3.74-21.423-56.044-5.557-65.651c5.293-3.203,15.332-3.778,23.158-0.751
							c4.624,1.789,6.039,3.918,13.65,6.695c7.019,2.559,9.131,1.957,11.126,3.996c2.499,2.548,3.949,8.348-2.053,23.108
							c4.854-4.053,10.327-5.259,13.916-3.123c0.573,0.342,2.062,1.579,2.798,3.305
							C2539.241,1520.486,2533.09,1527.546,2520.317,1530.757z"/>
					</g>
				</g>
				<g>
					
						<linearGradient id="SVGID_00000026152980758103007000000013850540847533580456_" gradientUnits="userSpaceOnUse" x1="1389.6284" y1="1514.7064" x2="1404.8446" y2="1737.6248" gradientTransform="matrix(-1 0 0 1 3882.3601 0)">
						<stop  offset="0" style="stop-color:#444B8C"/>
						<stop  offset="0.9964" style="stop-color:#26264F"/>
					</linearGradient>
					<path style="fill:url(#SVGID_00000026152980758103007000000013850540847533580456_);" d="M2509.463,1647.896
						c0,0-7.301,38.976-18.714,39.737c-11.412,0.761-19.781,2.282-19.781,2.282l-12.766-47.666
						C2458.203,1642.25,2474.844,1655.803,2509.463,1647.896z"/>
					
						<linearGradient id="SVGID_00000129899713479871070860000009859654942528968358_" gradientUnits="userSpaceOnUse" x1="1348.4457" y1="1958.819" x2="1348.4457" y2="1458.0883" gradientTransform="matrix(-1 0 0 1 3882.3601 0)">
						<stop  offset="0" style="stop-color:#444B8C"/>
						<stop  offset="0.9964" style="stop-color:#26264F"/>
					</linearGradient>
					<path style="fill:url(#SVGID_00000129899713479871070860000009859654942528968358_);" d="M2496.166,1684.382
						c0,0,25.397,285.133,114.413,330.781c-2.282,9.13,0,83.309,0,83.309s-82.979-24.985-87.709-23.334
						s-100.496-157.083-51.901-385.223L2496.166,1684.382z"/>
				</g>
			</g>
			<g>
				<g>
					
						<linearGradient id="SVGID_00000021080004637472362840000006185319425872169133_" gradientUnits="userSpaceOnUse" x1="3187.1113" y1="1699.9713" x2="3254.1997" y2="1784.3772" gradientTransform="matrix(0.9618 0.2736 -0.2736 0.9618 -740.275 -628.4864)">
						<stop  offset="0" style="stop-color:#FFC444"/>
						<stop  offset="0.9964" style="stop-color:#F36F56"/>
					</linearGradient>
					<path style="fill:url(#SVGID_00000021080004637472362840000006185319425872169133_);" d="M1814.614,1920.405
						c0,0,41.036-30.911,54.634-32.691c4.551-0.596,6.798-2.434,11.659,3.226c5.38,6.264,73.987-7.199,55.377,11.116
						c-18.61,18.315-32.031,35.577-57.031,36.737c-25,1.16-54.492,8.746-59.588,12.082
						C1814.569,1954.21,1814.614,1920.405,1814.614,1920.405z"/>
					
						<linearGradient id="SVGID_00000104706037618421632040000008828486114207166857_" gradientUnits="userSpaceOnUse" x1="574.6088" y1="2153.0413" x2="686.1965" y2="1706.6891" gradientTransform="matrix(-1 0 0 1 1777.72 0)">
						<stop  offset="0" style="stop-color:#FF9085"/>
						<stop  offset="1" style="stop-color:#FB6FBB"/>
					</linearGradient>
					<path style="fill:url(#SVGID_00000104706037618421632040000008828486114207166857_);" d="M1132.006,1708.734
						c-8.467,3.201-137.617,54.562-164.164,189.357c-2.144,10.89-22.892,126.699,55.646,208.514
						c88.067,91.74,257.648,89.466,324.961,12.772c15.697-17.885,23.978-37.708,28.617-54.363l0,0l-17.736-47.119
						c-21.641-26.125-51.107-32.316-66.843-36.194c-38.794-9.561-68.084,7.718-90.301-10.99
						c-12.294-10.349-14.735-25.247-16.917-38.555c-7.431-45.326,18.152-73.226,20.014-101.176
						c1.392-20.897,8.706-66.681-18.567-96.537C1169.446,1715.537,1145.524,1710.389,1132.006,1708.734z"/>
					
						<linearGradient id="SVGID_00000047777004135179834820000012437677468382125986_" gradientUnits="userSpaceOnUse" x1="359.0652" y1="3060.3508" x2="411.9982" y2="3107.4351" gradientTransform="matrix(-0.9902 -0.14 -0.14 0.9902 1880.5627 206.9384)">
						<stop  offset="0" style="stop-color:#444B8C"/>
						<stop  offset="0.9964" style="stop-color:#26264F"/>
					</linearGradient>
					<path style="fill:url(#SVGID_00000047777004135179834820000012437677468382125986_);" d="M1081.684,3210.978
						c-1.507-8.298-28.305-15.81-41.574-4.695c-6.589,5.518-11.126,16.706-7.313,21.758c1.386,1.838-4.294,5.071,1.149,5.134
						C1051.997,3233.386,1083.182,3219.224,1081.684,3210.978z"/>
					
						<linearGradient id="SVGID_00000065049301733436038530000007789288593818766509_" gradientUnits="userSpaceOnUse" x1="-515.2112" y1="3107.5081" x2="-515.2112" y2="3015.2947" gradientTransform="matrix(-0.9902 -0.14 -0.14 0.9902 964.3617 77.4224)">
						<stop  offset="0" style="stop-color:#FFC444"/>
						<stop  offset="0.9964" style="stop-color:#F36F56"/>
					</linearGradient>
					<path style="fill:url(#SVGID_00000065049301733436038530000007789288593818766509_);" d="M1053.595,3213.998l-27.561-3.896
						c12.769-15.373,10.404-64.329,10.404-64.329l29.31,6.541c0,0-3.339,13.438-9.02,33.26
						C1054.782,3192.359,1053.914,3202.979,1053.595,3213.998z"/>
					
						<linearGradient id="SVGID_00000049213250851620190350000009805580398084146585_" gradientUnits="userSpaceOnUse" x1="364.3869" y1="3054.3689" x2="417.32" y2="3101.4531" gradientTransform="matrix(-0.9902 -0.14 -0.14 0.9902 1880.5627 206.9384)">
						<stop  offset="0" style="stop-color:#444B8C"/>
						<stop  offset="0.9964" style="stop-color:#26264F"/>
					</linearGradient>
					<path style="fill:url(#SVGID_00000049213250851620190350000009805580398084146585_);" d="M1056.039,3210.602
						c0,0-33.182-7.645-36.77-1.063c-3.59,6.582-6.376,24.205,14.676,23.636C1054.997,3232.608,1057.909,3216.184,1056.039,3210.602
						z"/>
					
						<linearGradient id="SVGID_00000004535039864774876920000000646238360380312757_" gradientUnits="userSpaceOnUse" x1="306.4897" y1="3216.2969" x2="359.4254" y2="3263.3835" gradientTransform="matrix(-1 0 0 1 1777.72 0)">
						<stop  offset="0" style="stop-color:#444B8C"/>
						<stop  offset="0.9964" style="stop-color:#26264F"/>
					</linearGradient>
					<path style="fill:url(#SVGID_00000004535039864774876920000000646238360380312757_);" d="M1459.847,3242.095
						c-2.654-8.006-30.239-11.692-41.823,1.171c-5.75,6.385-8.678,18.098-4.196,22.566c1.63,1.628-3.541,5.623,1.856,4.925
						C1433.588,3268.438,1462.483,3250.049,1459.847,3242.095z"/>
					
						<linearGradient id="SVGID_00000165197992349692114650000000398187897909414542_" gradientUnits="userSpaceOnUse" x1="-567.8298" y1="3263.4768" x2="-567.8298" y2="3171.2588" gradientTransform="matrix(-1 0 0 1 852.4098 0)">
						<stop  offset="0" style="stop-color:#FFC444"/>
						<stop  offset="0.9964" style="stop-color:#F36F56"/>
					</linearGradient>
					<path style="fill:url(#SVGID_00000165197992349692114650000000398187897909414542_);" d="M1432.456,3249.016h-27.834
						c10.491-17.009,1.297-65.152,1.297-65.152l29.937,2.375c0,0-1.425,13.773-4.276,34.194
						C1430.605,3227.425,1431.231,3238.062,1432.456,3249.016z"/>
					
						<linearGradient id="SVGID_00000045576741057071861690000004882806899305913747_" gradientUnits="userSpaceOnUse" x1="1623.2563" y1="2044.8546" x2="859.7141" y2="3585.5723">
						<stop  offset="0" style="stop-color:#444B8C"/>
						<stop  offset="0.9964" style="stop-color:#26264F"/>
					</linearGradient>
					<path style="fill:url(#SVGID_00000045576741057071861690000004882806899305913747_);" d="M1504.594,2196.425
						c12.893,42.58,31.308,111.303,43.16,197.526c33.81,245.935-38.051,253.78-24.631,526.307
						c4.283,86.992-75.363,287.585-82.384,292.016c-3.398,0.329-7.084,0.55-11.015,0.432c-6.928-0.209-16.695-1.271-28.053-4.676
						c-12.616-2.174-58.105-125.383-47.561-198.638c7.461-51.848,5.298-107.49,0.972-218.776
						c-0.701-18.033-46.836-350.824-46.836-350.824l0,0c-14.034,123.18-30.173,227.844-44.166,308.993
						c-44.954,260.713-191.117,418.515-198.741,421.045c-1.507,0.605-15.222,5.588-26.435-1.803c-4.991-3.29-6.69-7.534-6.69-7.534
						c-3.909-3.062,1.153-260.293,45.735-453.883c64.71-280.992,36.533-346.739,57.035-472.248
						C1152.722,2125.76,1504.594,2196.425,1504.594,2196.425z"/>
					
						<linearGradient id="SVGID_00000130640937860952357610000007762732444946303146_" gradientUnits="userSpaceOnUse" x1="1704.7495" y1="2266.7813" x2="831.9128" y2="1659.7552">
						<stop  offset="0" style="stop-color:#FF9085"/>
						<stop  offset="1" style="stop-color:#FB6FBB"/>
					</linearGradient>
					<path style="fill:url(#SVGID_00000130640937860952357610000007762732444946303146_);" d="M1521.9,2238.885
						c-38.851,19.945-138.941,55.649-258.181,37.904c-54.488-8.094-98.073-26.206-128.739-42.394
						c3.727-11.301,6.659-21.991,8.918-32.101c16.341-73.639-3.634-117.316-13.713-157.938
						c-16.311-65.912-16.585-60.933-30.024-113.284c-22.205-86.376-25.839-174.615-10.599-192.696
						c41.111-48.686,115.178-50.427,153.662-51.587c42.944-1.252,141.69-16.402,196.087,32.528
						c0.947,0.855-10.202,6.811-4.704,13.225c5.1,5.956,22.572,26.878,38.392,55.099c11.485,20.464,21.839,44.318,32.285,79.84
						c14.416,49.083,20.798,92.454,23.732,120.126c0.793,7.666,1.344,14.141,1.74,19.181
						C1540.714,2137.543,1530.85,2197.865,1521.9,2238.885z"/>
					
						<linearGradient id="SVGID_00000150065512667785466390000006445640629508189885_" gradientUnits="userSpaceOnUse" x1="311.8116" y1="3210.3152" x2="364.7467" y2="3257.4011" gradientTransform="matrix(-1 0 0 1 1777.72 0)">
						<stop  offset="0" style="stop-color:#444B8C"/>
						<stop  offset="0.9964" style="stop-color:#26264F"/>
					</linearGradient>
					<path style="fill:url(#SVGID_00000150065512667785466390000006445640629508189885_);" d="M1434.402,3245.312
						c0,0-33.925-2.924-36.557,4.095c-2.632,7.019-2.925,24.859,17.839,21.35C1436.45,3267.247,1437.035,3250.576,1434.402,3245.312
						z"/>
					<g>
						
							<linearGradient id="SVGID_00000080174058173729023320000001921274366960985746_" gradientUnits="userSpaceOnUse" x1="1276.0667" y1="1706.89" x2="1379.6844" y2="1504.5111">
							<stop  offset="0" style="stop-color:#FFC444"/>
							<stop  offset="0.9964" style="stop-color:#F36F56"/>
						</linearGradient>
						<path style="fill:url(#SVGID_00000080174058173729023320000001921274366960985746_);" d="M1353.191,1638.185
							c12.525-21.178,6.945-45.37,5.687-50.598c-5.269-21.887-7.228-25.207-11.291-29.837l-5.744-6.074c0,0-0.355-0.266-0.734-0.526
							c-3.994-2.747-18.91-7.213-22.129-7.373c-10.285-0.516-31.216,36.366-43.201,93.203c-0.973,2.029-1.937,4.079-2.891,6.151
							c-5.946,12.895-11.045,25.577-15.423,37.94c-69.507,5.878-79.155,14.031-79.464,18.741
							c-0.653,9.914,38.952,21.37,68.736,25.731c64.958,9.511,131.728-7.621,131.423-19.733
							c-0.133-5.273-13.043-12.145-68.109-19.357c1.288-9.112,2.576-18.225,3.863-27.338
							C1318.391,1658.123,1343.965,1653.789,1353.191,1638.185z"/>
						<path style="fill:#26264F;" d="M1366.258,1541.131c-4.687,17.349-17.812,33.713-22.775,35.581
							c-0.641,0.242-4.309,1.828-8.121,5.194c-0.52,0.457-1.019,1.023-1.537,1.788c-6.721,9.928,7.245,27.444,2.581,31.448
							c-3.384,2.905-13.941-5-16.166-2.306c-2.095,2.534,6.137,11.137,3.71,14.194c-1.832,2.308-7.243-1.693-12.123,1.292
							c-2.433,1.486-2.295,3.215-5.934,8.77c-2.058,3.141-4.656,6.486-6.451,8.254c-8.719,8.595-26.708,7.788-28.891,2.837
							c-0.606-1.379,0.429-2.127,0.516-6.191c0,0,0.081-3.766-1.289-8.511c-1.959-6.779-9.332-13.218-16.251-21.668
							c-12.815-15.648-14.53-26.532-14.947-30.165c-0.148-1.295-0.199-2.255-0.235-2.947c-0.711-13.898,4.282-32.703,13.118-42.73
							c14.802-16.799,34.096-1.807,57.01-16.251c26.437-16.665,22.274-50.19,34.308-50.561
							C1356.048,1468.747,1374.923,1509.051,1366.258,1541.131z"/>
						
							<linearGradient id="SVGID_00000092415848347514650340000010758646085835375010_" gradientUnits="userSpaceOnUse" x1="384.1025" y1="1534.2653" x2="653.9261" y2="1873.7377" gradientTransform="matrix(-1 0 0 1 1777.72 0)">
							<stop  offset="0" style="stop-color:#FFC444"/>
							<stop  offset="0.9964" style="stop-color:#F36F56"/>
						</linearGradient>
						<path style="fill:url(#SVGID_00000092415848347514650340000010758646085835375010_);" d="M1331.252,1609.397
							c-2.697-6.982-11.642-3.481-13.7,4.073c-2.062,7.554,3.173,17.375,10.683,17.776
							C1335.745,1631.65,1334.881,1618.795,1331.252,1609.397z"/>
					</g>
					<g>
						
							<linearGradient id="SVGID_00000103242892168881993220000008102033407490996354_" gradientUnits="userSpaceOnUse" x1="1100.5538" y1="2056.8015" x2="1151.9489" y2="2056.8015">
							<stop  offset="0" style="stop-color:#FF9085"/>
							<stop  offset="1" style="stop-color:#FB6FBB"/>
						</linearGradient>
						<path style="fill:url(#SVGID_00000103242892168881993220000008102033407490996354_);" d="M1148.67,2175.7
							c-0.068,0-0.137-0.004-0.205-0.012c-1.01-0.112-1.739-1.022-1.627-2.033c5.067-45.598-4.385-78.738-12.725-107.977
							c-2.061-7.224-4.006-14.046-5.703-20.893c-9.269-37.396-13.325-51.833-17.621-67.118c-2.799-9.957-5.693-20.251-10.175-37.46
							c-0.255-0.984,0.334-1.99,1.318-2.246c0.971-0.254,1.989,0.333,2.246,1.318c4.474,17.174,7.363,27.452,10.155,37.391
							c4.304,15.312,8.368,29.777,17.651,67.227c1.681,6.785,3.62,13.578,5.669,20.769c8.433,29.565,17.991,63.076,12.845,109.394
							C1150.394,2175.003,1149.596,2175.7,1148.67,2175.7z"/>
					</g>
					<path style="fill:#26264F;" d="M1331.175,1595.819l6.449,15.476c0,0,6.449,18.573,14.962,11.61
						c6.954-5.691,8.228-5.183,8.46-4.805c0.044,0.072,0.038,0.161,0.052,0.161c0.096,0,0.19-3.705,0.258-6.966
						c1.621,4.474,3.612,11.56,3.611,20.38c-0.001,8.567-0.001,17.74-6.707,24.763c-0.388,0.407-7.694,7.837-17.541,7.481
						c0,0-3.873-0.139-18.574-6.963c0,0,20.121-7.739,21.154-10.577c2.804-7.716-7.016-14.909-10.836-33.279
						C1330.992,1606.016,1330.955,1599.938,1331.175,1595.819z"/>
					
						<linearGradient id="SVGID_00000014607152976519729900000011781054472438734241_" gradientUnits="userSpaceOnUse" x1="1134.9803" y1="2124.783" x2="1534.9265" y2="2124.783">
						<stop  offset="0" style="stop-color:#FF9085"/>
						<stop  offset="1" style="stop-color:#FB6FBB"/>
					</linearGradient>
					<path style="opacity:0.3;fill:url(#SVGID_00000014607152976519729900000011781054472438734241_);" d="M1521.9,2238.885
						c-38.851,19.945-138.941,55.649-258.181,37.904c-54.488-8.094-98.073-26.206-128.739-42.394
						c3.727-11.301,6.659-21.991,8.918-32.101c79.321,55.558,112.49,1.527,163.711-11.209
						c53.298-13.225,121.836,14.264,80.114-108.825c-41.752-123.089,27.489-114.139,27.489-114.139l113.804,19.486
						c0.793,7.666,1.344,14.141,1.74,19.181C1540.714,2137.543,1530.85,2197.865,1521.9,2238.885z"/>
					
						<linearGradient id="SVGID_00000150787260302863259180000009992797443818911673_" gradientUnits="userSpaceOnUse" x1="811.3307" y1="2315.0969" x2="-22.8142" y2="1734.9795" gradientTransform="matrix(-1 0 0 1 1777.72 0)">
						<stop  offset="0" style="stop-color:#FF9085"/>
						<stop  offset="1" style="stop-color:#FB6FBB"/>
					</linearGradient>
					<path style="fill:url(#SVGID_00000150787260302863259180000009992797443818911673_);" d="M1815.323,1915.662
						c15.536,10.872,23.869,25.637,28.189,35.062c-11.423,26.81-37.33,76.595-90.952,113.283
						c-87.921,60.157-216.836,62.181-306.629-6.422c-107.278-81.96-125.202-239.128-80.143-306.435
						c5.187-7.748,22.24-33.221,48.714-36.145c16.72-1.847,39.476,5.048,75.431,47.143c74.917,87.717,48.455,142.486,92.716,168.149
						C1649.019,1968.777,1747.646,1868.302,1815.323,1915.662z"/>
					<g>
						
							<linearGradient id="SVGID_00000079459832930845832360000016955184759146450577_" gradientUnits="userSpaceOnUse" x1="1358.7516" y1="2016.3949" x2="1515.1619" y2="2016.3949">
							<stop  offset="0" style="stop-color:#FF9085"/>
							<stop  offset="1" style="stop-color:#FB6FBB"/>
						</linearGradient>
						<path style="fill:url(#SVGID_00000079459832930845832360000016955184759146450577_);" d="M1513.323,2095.311
							c-0.13,0-0.261-0.014-0.392-0.042c-1.061-0.23-106.648-24.494-154.069-155.321c-0.345-0.956,0.147-2.012,1.104-2.358
							c0.958-0.348,2.012,0.147,2.359,1.103c46.699,128.834,150.346,152.751,151.387,152.977c0.994,0.216,1.624,1.196,1.408,2.189
							C1514.932,2094.722,1514.17,2095.311,1513.323,2095.311z"/>
					</g>
				</g>
			</g>
			
				<linearGradient id="SVGID_00000039125247040271911670000006224254372255091100_" gradientUnits="userSpaceOnUse" x1="1884.796" y1="1883.8505" x2="1928.116" y2="1927.9441">
				<stop  offset="0" style="stop-color:#FFC444"/>
				<stop  offset="0.9964" style="stop-color:#F36F56"/>
			</linearGradient>
			<path style="fill:url(#SVGID_00000039125247040271911670000006224254372255091100_);" d="M1914.96,1893.025
				c0,0-7.825-15.036-18.719-7.672c-10.894,7.365-26.187,12.428-16.009,15.036C1890.411,1902.998,1914.96,1893.025,1914.96,1893.025
				z"/>
		</g>
		<g>
			
				<linearGradient id="SVGID_00000034793235977434145060000004883093565995761319_" gradientUnits="userSpaceOnUse" x1="2489.448" y1="923.2709" x2="2095.0732" y2="1049.8376">
				<stop  offset="0" style="stop-color:#FCB148"/>
				<stop  offset="0.0521" style="stop-color:#FDBA46"/>
				<stop  offset="0.1424" style="stop-color:#FFC244"/>
				<stop  offset="0.3183" style="stop-color:#FFC444"/>
				<stop  offset="0.4849" style="stop-color:#FDB946"/>
				<stop  offset="0.7754" style="stop-color:#F99C4D"/>
				<stop  offset="0.8658" style="stop-color:#F8924F"/>
				<stop  offset="1" style="stop-color:#F8924F"/>
			</linearGradient>
			<path style="fill:url(#SVGID_00000034793235977434145060000004883093565995761319_);" d="M2943.457,908.961
				c0,182.955-143.06,326.877-325.907,321.262c-190.289-5.844-350.329-170.187-350.329-366.852
				c0-196.665,160.04-339.429,350.329-319.615C2800.397,562.795,2943.457,726.006,2943.457,908.961z"/>
			
				<linearGradient id="SVGID_00000155124112275898913820000014909769934148696457_" gradientUnits="userSpaceOnUse" x1="2808.4741" y1="530.7104" x2="2456.4006" y2="1307.4503">
				<stop  offset="0" style="stop-color:#FFDB44"/>
				<stop  offset="1" style="stop-color:#FEEF06"/>
			</linearGradient>
			<path style="fill:url(#SVGID_00000155124112275898913820000014909769934148696457_);" d="M2992.866,893.186
				c0,182.955-143.06,326.877-325.907,321.262c-190.29-5.844-350.33-170.187-350.33-366.852c0-196.665,160.04-339.43,350.33-319.615
				C2849.806,547.019,2992.866,710.231,2992.866,893.186z"/>
			
				<linearGradient id="SVGID_00000173876191677570188940000016129720248032365708_" gradientUnits="userSpaceOnUse" x1="2743.71" y1="1350.8628" x2="2675.7766" y2="979.7454">
				<stop  offset="0" style="stop-color:#FCB148"/>
				<stop  offset="0.0521" style="stop-color:#FDBA46"/>
				<stop  offset="0.1424" style="stop-color:#FFC244"/>
				<stop  offset="0.3183" style="stop-color:#FFC444"/>
				<stop  offset="0.4849" style="stop-color:#FDB946"/>
				<stop  offset="0.7754" style="stop-color:#F99C4D"/>
				<stop  offset="0.8658" style="stop-color:#F8924F"/>
				<stop  offset="1" style="stop-color:#F8924F"/>
			</linearGradient>
			<path style="fill:url(#SVGID_00000173876191677570188940000016129720248032365708_);" d="M2978.514,892.218
				c0,174.899-136.882,312.25-311.555,306.594c-181.453-5.875-333.801-162.715-333.801-350.102s152.348-323.685,333.801-305.094
				C2841.632,561.512,2978.514,717.319,2978.514,892.218z"/>
			
				<linearGradient id="SVGID_00000157282600372150242250000015861785391236119738_" gradientUnits="userSpaceOnUse" x1="2599.6785" y1="750.1683" x2="2879.6409" y2="1344.4747">
				<stop  offset="0" style="stop-color:#FCB148"/>
				<stop  offset="0.0521" style="stop-color:#FDBA46"/>
				<stop  offset="0.1424" style="stop-color:#FFC244"/>
				<stop  offset="0.3183" style="stop-color:#FFC444"/>
				<stop  offset="0.4849" style="stop-color:#FDB946"/>
				<stop  offset="0.7754" style="stop-color:#F99C4D"/>
				<stop  offset="0.8658" style="stop-color:#F8924F"/>
				<stop  offset="1" style="stop-color:#F8924F"/>
			</linearGradient>
			<path style="fill:url(#SVGID_00000157282600372150242250000015861785391236119738_);" d="M2968.235,891.525
				c0,169.129-132.45,301.787-301.276,296.119c-175.151-5.881-322.029-157.362-322.029-338.14s146.878-312.455,322.029-294.72
				C2835.785,571.879,2968.235,722.397,2968.235,891.525z"/>
			<g>
				
					<linearGradient id="SVGID_00000101795515024545803390000014483673708314189459_" gradientUnits="userSpaceOnUse" x1="2588.5247" y1="622.2813" x2="2729.2993" y2="1149.8799">
					<stop  offset="0" style="stop-color:#FFDB44"/>
					<stop  offset="1" style="stop-color:#FEEF06"/>
				</linearGradient>
				<path style="fill:url(#SVGID_00000101795515024545803390000014483673708314189459_);" d="M2665.23,612.322L2665.23,612.322
					c8.984,0.854,16.256,8.942,16.256,18.066v31.139c17.964,2.006,35.953,5.129,53.969,9.362
					c13.283,3.122,26.476,6.838,39.582,11.147c7.853,2.582,13.203,10.51,12.402,18.687l-3.824,39.047
					c-1.015,10.36-11.256,16.444-20.896,12.145c-8.632-3.849-17.483-7.147-26.553-9.892c-15.829-4.789-32.52-7.912-50.085-9.36
					l-4.593-0.378v89.179c46.865,13.112,81.284,30.751,103.527,52.938c22.136,22.08,33.164,49.599,33.164,82.635
					c0,35.726-12.193,64.333-36.677,85.908c-24.614,21.69-59.124,33.889-103.75,36.53v34.369c0,9.128-7.276,16.238-16.269,15.88
					l-0.288-0.011c-9.01-0.358-16.326-8.074-16.326-17.234v-33.904l-7.242-0.327c-20.92-0.944-40.959-3.078-60.105-6.408
					c-14.179-2.467-28.025-5.65-41.536-9.553c-8.171-2.36-13.78-10.144-13.03-18.505l4.5-50.195
					c0.972-10.851,11.872-17.165,22.191-13.095c12.027,4.744,24.204,8.74,36.53,11.991c19.208,5.065,38.677,8.314,58.403,9.757
					l0.289-99.2c-44.986-11.131-78.666-27.619-100.794-49.457c-22.231-21.942-33.386-50.021-33.386-84.162
					c0-35.332,12.095-62.604,36.195-81.745c23.977-19.044,58.063-28.518,102.036-28.494v-31.835
					C2648.918,618.193,2656.228,611.466,2665.23,612.322z M2648.918,731.362c-13.903,1.012-24.745,4.83-32.505,11.46
					c-7.772,6.641-11.663,15.567-11.663,26.769c0,10.612,3.599,19.483,10.79,26.604c7.179,7.11,18.315,12.786,33.378,17.028V731.362
					z M2677.75,910.991v90.969c15.114,0.03,26.703-3.579,34.794-10.815c8.076-7.224,12.11-17.429,12.11-30.622
					c0-12.03-3.748-22.006-11.254-29.94C2705.883,922.637,2694.01,916.107,2677.75,910.991z"/>
			</g>
			
				<linearGradient id="SVGID_00000160182229574692820790000001937674442096279725_" gradientUnits="userSpaceOnUse" x1="2517.3145" y1="788.6288" x2="2796.7119" y2="1381.7363">
				<stop  offset="0" style="stop-color:#FCB148"/>
				<stop  offset="0.0521" style="stop-color:#FDBA46"/>
				<stop  offset="0.1424" style="stop-color:#FFC244"/>
				<stop  offset="0.3183" style="stop-color:#FFC444"/>
				<stop  offset="0.4849" style="stop-color:#FDB946"/>
				<stop  offset="0.7754" style="stop-color:#F99C4D"/>
				<stop  offset="0.8658" style="stop-color:#F8924F"/>
				<stop  offset="1" style="stop-color:#F8924F"/>
			</linearGradient>
			<path style="opacity:0.3;fill:url(#SVGID_00000160182229574692820790000001937674442096279725_);" d="M2612.439,932.942
				c10.179-100.535,102.575-143.095,90.517-235.571c-7.432-56.997-50.632-105.031-98.824-142.536
				c-146.172,15.33-259.203,136.365-259.203,294.669c0,180.779,146.878,332.26,322.029,338.14
				c17.006,0.571,33.615-0.313,49.765-2.43C2647.164,1115.997,2603.695,1019.314,2612.439,932.942z"/>
		</g>
	</g>
</g>
</svg>
